<?xml version="1.0" standalone="no"?><!DOCTYPE svg PUBLIC "-//W3C//DTD SVG 1.1//EN" "http://www.w3.org/Graphics/SVG/1.1/DTD/svg11.dtd"><svg class="icon" width="16px" height="16.00px" viewBox="0 0 1024 1024" version="1.1" xmlns="http://www.w3.org/2000/svg"><path fill="#fd7549" d="M183.04 960a98.4 98.4 0 0 1-98.24-98.24v-412.8A97.44 97.44 0 0 1 110.56 384l3.84-4.32-48-112 134.24-50.56V64h642.08v155.36l112 46.56-50.4 215.04 5.44 3.36a97.44 97.44 0 0 1 48 84.16v293.28A98.4 98.4 0 0 1 859.84 960z m0-572a61.12 61.12 0 0 0-60.96 60.96v412.8a61.12 61.12 0 0 0 60.96 60.96h676.8a61.12 61.12 0 0 0 60.96-60.96V568.48a61.12 61.12 0 0 0-60.96-60.96H537.92l-62.24-119.36z m659.68 82.08h17.12a64 64 0 0 1 8 0.8l11.36 1.44 44.8-190.56-81.28-33.76z m-282.72 0h245.28v-368H237.6v248.64h260.64zM101.12 281.28l34.88 80.96 8-3.52a98.88 98.88 0 0 1 38.88-8h17.12v-106.72zM371.68 212.8h331.2v26.56h-331.2zM451.36 296.32H643.2v26.56H451.36z" /></svg>