<?xml version="1.0" standalone="no"?><!DOCTYPE svg PUBLIC "-//W3C//DTD SVG 1.1//EN" "http://www.w3.org/Graphics/SVG/1.1/DTD/svg11.dtd"><svg class="icon" width="16px" height="16.00px" viewBox="0 0 1024 1024" version="1.1" xmlns="http://www.w3.org/2000/svg"><path fill="#fd7549" d="M511.185721 0C359.755794 0 198.920282 46.782565 198.920282 133.559314v400.63705c0 87.676415 157.032384 133.518421 312.265439 133.518421 155.192161 0 312.265439-45.801112 312.26544-133.518421V133.559314C823.451161 46.782565 662.615648 0 511.185721 0z m267.650249 534.196364c0 42.120666-109.922669 89.025912-267.650249 89.025912-157.72758 0-267.650249-46.905246-267.650249-89.025912v-62.404015c58.273736 40.852956 165.047579 62.404015 267.650249 62.404015 102.643564 0 209.376513-21.551059 267.650249-62.404015v62.404015z m0-133.559314c0 37.17251-101.825687 89.025912-267.650249 89.025911s-267.650249-51.853402-267.650249-89.025911V338.233034C301.809209 379.085991 408.542158 400.63705 511.185721 400.63705c102.643564 0 209.376513-21.551059 267.650249-62.404016v62.404016z m0-133.559315c0 37.213404-101.825687 89.066806-267.650249 89.066806S243.535472 304.250245 243.535472 267.036841V204.67372C301.809209 245.56757 408.542158 267.077735 511.185721 267.077735c102.643564 0 209.376513-21.510165 267.650249-62.404015v62.404015zM511.185721 222.585226c-165.824562 0-267.650249-51.853402-267.650249-89.025912 0-37.213404 101.825687-89.025912 267.650249-89.025911s267.650249 51.853402 267.650249 89.025911S677.010283 222.585226 511.185721 222.585226z m6.951955 579.547644c54.59329 8.955753 82.278426 31.079326 82.278426 65.920886 0 37.417873-39.258096 66.779657-89.271275 66.779657-47.436866 0-85.71351-26.581003-89.107699-61.831501a22.246254 22.246254 0 0 1 20.07888-24.250053 21.959998 21.959998 0 0 1 24.331841 20.037987c0.899665 8.996647 18.279551 21.510165 44.656085 21.510165 26.86726 0 44.656084-13.372289 44.656084-22.246255 0-6.665698-7.769832-15.948602-44.860554-22.041785l-2.985251-23.064131-3.598659 21.959997c-54.675078-8.914859-82.401108-31.079326-82.401107-65.920886 0-37.458767 39.217202-66.779657 89.271274-66.779658 47.436866 0 85.71351 26.581003 89.1077 61.831502 1.145028 12.268155-7.810725 23.105025-20.078881 24.250053a21.919104 21.919104 0 0 1-24.331841-20.037987c-0.899665-8.996647-18.279551-21.469271-44.656084-21.469271-26.86726 0-44.656084 13.372289-44.656084 22.246255 0 5.479776 5.847821 15.621451 44.983235 22.000891l6.58391 1.104134z m305.313485-23.105025v89.025911c0 10.264356-2.535419 19.956199-6.706592 28.625695l0.163576 0.163576a22.246254 22.246254 0 1 1-31.529159 31.488264l-0.204469-0.163575a66.370719 66.370719 0 0 1-28.625695 6.665697h-44.574297a66.943233 66.943233 0 0 1-66.943232-66.779657V779.027845c0-36.804465 30.016086-66.779657 66.902338-66.779658H756.548822c36.886253 0 66.902339 29.975192 66.902339 66.779658z m-44.574297 79.865689V779.027845c0-12.268155-10.018993-22.246254-22.328042-22.246255h-44.574297a22.287148 22.287148 0 0 0-22.328042 22.246255v89.025911c0 12.268155 9.978099 22.246254 22.287148 22.246255h35.332287l-6.543016-6.502122a22.246254 22.246254 0 1 1 31.570052-31.488265l6.543016 6.543016z m200.74791 31.406477a22.287148 22.287148 0 1 1 0 44.533402h-89.230381a22.287148 22.287148 0 0 1-22.328042-22.246254V734.453548a22.287148 22.287148 0 0 1 44.615191 0v155.805569h66.943232z m-614.593673-86.694963c11.04134 5.52067 15.498769 18.852065 9.978099 29.852511L285.860607 1011.509382a22.368936 22.368936 0 0 1-29.934298 9.9781 22.287148 22.287148 0 0 1-10.018993-29.852511l39.62614-79.006918-39.667034-79.1296a22.246254 22.246254 0 0 1 10.018993-29.852511 22.368936 22.368936 0 0 1 29.934298 9.9781L310.396917 862.860237l24.658992-49.277089a22.368936 22.368936 0 0 1 29.934298-9.9781z m-181.364225-90.211833a22.246254 22.246254 0 0 1 15.253406 21.101227v178.092717a22.287148 22.287148 0 0 1-44.615191 0v-111.31306l-26.785471 35.618543c-8.383239 11.204915-27.235304 11.204915-35.700332 0l-26.744578-35.577649v111.231272a22.287148 22.287148 0 0 1-44.61519 0v-178.051823a22.246254 22.246254 0 0 1 40.157761-13.331395l49.07262 65.266584 49.07262-65.266584a22.287148 22.287148 0 0 1 24.904355-7.769832z" /></svg>